<?xml version="1.0" encoding="utf-8"?>
<!-- Generator: Adobe Illustrator 18.1.0, SVG Export Plug-In . SVG Version: 6.00 Build 0)  -->
<svg version="1.1" id="Layer_1" xmlns="http://www.w3.org/2000/svg" xmlns:xlink="http://www.w3.org/1999/xlink" x="0px" y="0px"
	 viewBox="0 603.4 1152 260.6" enable-background="new 0 603.4 1152 260.6" xml:space="preserve">
<g>
	<g>
		<g>
			<path fill="#FFFFFF" d="M415,825.9h30.1v-156H415v-15.5h82.9c35.2,0,73.3,15.3,73.3,57.6c0,42.5-38.5,57.6-73.3,57.6h-34.3v56.1
				h35.6V841H415V825.9z M463.8,754.5h34.8c36.8,0,54.2-16.7,54.2-42.3s-17.4-42.3-54.2-42.3h-34.8V754.5z"/>
		</g>
		<g>
			<path fill="#FFFFFF" d="M583.3,776.9c0-41.2,23.4-69.1,60.7-69.1c40.8,0,56.7,34.3,56.7,64.1c0,2.3,0,5.9-0.6,8.6h-98.8
				c1.3,30.6,18.6,49.6,48.8,49.6c16.5,0,31.8-5.4,44.4-13.2v15.3c-11.5,6.5-26.6,12.4-45.8,12.4
				C606.1,844.5,583.3,817.1,583.3,776.9z M601.5,767.1h81.9c-1.3-22.4-11.9-45-39.4-45C618.9,722.1,604.3,740.7,601.5,767.1z"/>
		</g>
		<g>
			<path fill="#FFFFFF" d="M720.9,806.6c0-32.9,33.1-39.8,59.5-39.8h29.5v-12.4c0-23.4-9-31.8-33.1-31.8c-16.5,0-33.1,4-45,8.6
				v-14.4c13.2-5.2,31-9,47.9-9c32.9,0,48.1,13.8,48.1,45.2v73.5h23.9V841h-41.2v-16.7c-10.5,9.2-27.8,20.1-48.4,20.1
				C739.7,844.5,720.9,832.2,720.9,806.6z M809.8,810.6v-31h-29.1c-19.9,0-41.4,4.6-41.4,26.8c0,15.3,10.9,24.3,27.2,24.3
				C784.1,830.5,799.6,819.8,809.8,810.6z"/>
		</g>
		<g>
			<path fill="#FFFFFF" d="M861.1,776.5c0-42.5,26-68.7,67.2-68.7c17,0,34.1,4.6,45,9v37.1h-15.5v-27c-7.1-2.1-18-4.4-28.5-4.4
				c-33.5,0-49.8,22.2-49.8,53c0,33.1,18.6,54.2,49.8,54.2c15.9,0,31.2-5.2,44.4-13.2v15.1c-12.4,7.7-27.6,12.8-45.8,12.8
				C886.5,844.5,861.1,818.6,861.1,776.5z"/>
		</g>
		<g>
			<path fill="#FFFFFF" d="M994.3,826.7h24.5V639h-24.5v-14.4h42.5v106.6c14.9-13.8,33.1-23.4,52.3-23.4c23.4,0,38.5,14.4,38.5,42.3
				v76.6h24.5V841h-67v-14.4h24.5V752c0-17.4-6.5-29.5-25.1-29.5c-18.2,0-35.2,11.3-47.7,22.8v81.2h24.5V841h-67L994.3,826.7
				L994.3,826.7z"/>
		</g>
	</g>
	<g>
		<path fill="#FFFFFF" d="M262.4,849.8c-1.7,10.7,6.1,14.2,18.6,14.2c17.8,0,38.9-6.7,58-31.4v-0.2c1.5-1.9,2.9-4,4.4-6.1
			c-18.4,14.7-41.9,23.2-67.2,23.2L262.4,849.8L262.4,849.8z"/>
		<path fill="#FFFFFF" d="M386.1,734.2c0-58.8-48.1-106.6-107.4-106.6c-4.4,0-8.6,0.2-12.6,0.6c50.5,6.1,89.6,48.8,89.6,100.3
			c0,1.9,0,3.8-0.2,5.7c-2.9-52.5-46.3-94.4-99.9-95.2c-0.6,0-1.3,0-1.9,0c-2.9,0-5.7,0.2-8.6,0.4c-18.8,1.7-36,8-50.5,18.2
			c-1.3,0.8-2.3,1.7-3.6,2.7c-0.4,0.2-0.4,0.4-0.8,0.6c-2.1,1.7-4,3.3-6.1,5c-0.4,0.4-0.6,0.6-1,1c-0.8,0.8-1.7,1.7-2.3,2.3
			c-0.4,0.4-0.6,0.6-0.8,0.8c-0.4,0.4-0.8,0.8-1.3,1.3c-0.4,0.4-1,1-1.5,1.5c-0.6,0.6-1,1.3-1.7,2.1c-0.4,0.4-0.8,0.8-1,1.3
			c-0.4,0.6-1,1-1.5,1.7c-0.4,0.4-0.4,0.6-0.6,1c-0.2,0.2-0.4,0.4-0.6,0.8c-0.2,0.2-0.4,0.4-0.4,0.8c-1,1.3-1.9,2.5-2.7,3.8
			c-0.4,0.4-0.6,1-1,1.7s-0.8,1.3-1.3,1.9c-0.4,0.4-0.4,0.8-0.8,1.3l0,0c-0.4,0.4-0.4,0.8-0.8,1.3c-0.4,0.4-0.4,0.8-0.8,1.3
			c-0.2,0.4-0.4,0.6-0.4,1c-0.2,0.2-0.2,0.4-0.4,0.6c-0.2,0.4-0.4,0.6-0.4,1c-0.4,0.4-0.4,1-0.8,1.5c-0.2,0.4-0.4,0.8-0.6,1
			c-0.2,0.4-0.4,1-0.6,1.3c-0.4,0.6-0.4,1.3-0.8,1.9c-0.6,1.7-1.3,3.1-1.9,4.6c-0.4,0.6-0.4,1.5-0.8,2.3c-0.2,0.4-0.4,1-0.4,1.5
			c-0.2,0.4-0.4,0.8-0.4,1c-0.4,1.5-1,3.1-1.3,4.4c-0.2,0.6-0.4,1.3-0.4,1.9c-0.8,3.1-1.5,6.5-1.9,9.8c-0.2,0.6-0.6,4.4-0.8,5
			c0,0.2-0.2,6.1-0.2,6.9c0,0.2,0,0.2,0,0.4c0,0.8,0,1.7,0,2.3c0,18.4,5,35.6,13.6,50.5c9-8,18-14.7,26.8-19.5
			c5.7-3.1,11.1-5.2,16.1-6.5c0.8-0.2,1.7-0.4,2.3-0.4c0.8-0.2,1.5-0.4,2.3-0.4c0.4,0,1-0.2,1.5-0.2c0.6,0,1-0.2,1.7-0.2
			c0.4,0,0.8,0,1,0c2.1,0,3.8,0.2,5.4,0.6c2.3,1.9,5,3.8,7.7,5.7c4.4,7.1,3.3,19.5-3.1,34.3l0,0c-2.9,6.5-6.9,14-11.9,21.4
			c-1.7,2.3-3.1,4.4-4.6,6.5c13.2,6.3,28.1,9.8,43.5,9.8h24.9c0.8,0,1.7,0,2.5,0c0.4,0,0.4,0,0.8,0c0.6,0,1.5,0,2.1,0
			c0.2,0,0.4,0.2,0.4,0c0.8,0,1.7,0,2.3,0l0,0c0.8,0,1.5-0.4,2.3-0.4c0.4,0,0.6-0.4,1-0.4c0.8-0.2,1.7-0.2,2.5-0.4
			c0.8-0.2,1.7-0.2,2.3-0.4c1-0.2,1.9-0.4,2.9-0.4c0.8-0.2,1.7-0.4,2.3-0.4l0,0c0.8,0,1.7-0.4,2.5-0.4c0.6-0.2,1-0.2,1.7-0.4
			c0.4-0.2,1-0.2,1.5-0.4c0.8-0.2,1.5-0.4,2.1-0.6c0.8-0.2,1.7-0.4,2.3-0.6l0,0c0.8-0.2,1.5-0.4,2.3-0.6c0.4-0.2,0.4-0.2,0.8-0.4
			c0.6-0.2,1.3-0.4,1.9-0.6c0.8-0.4,1.7-0.6,2.3-1c0,0,0,0,0.2,0c0.6-0.4,1.3-0.4,1.9-0.8c0.4-0.2,0.6-0.4,1-0.4
			c0.6-0.4,1.3-0.6,2.1-1c0.6-0.4,1.3-0.6,1.9-1c1-0.4,1.7-1,2.7-1.5c0.6-0.4,1-0.6,1.7-1c0.2-0.2,0.4-0.2,0.6-0.4
			c0.4-0.4,1-0.4,1.5-0.8c0.6-0.4,1.5-0.8,2.1-1.3c0.4-0.2,0.8-0.4,1-0.6c0.6-0.4,1.5-0.8,2.1-1.3s1.3-0.8,1.7-1
			c0.4-0.4,1-0.6,1.7-1c0.4-0.4,0.8-0.4,1-0.8c0.4-0.4,0.8-0.6,1.3-1c0.4-0.4,0.8-0.6,1-0.8c0.8-0.6,1.7-1.3,2.5-1.9
			c0.4-0.4,0.8-0.6,1-1c0.4-0.4,0.8-0.6,1-1c0.4-0.4,0.8-0.6,1-1c0.4-0.4,0.8-0.8,1.3-1c0.8-0.6,1.5-1.3,2.3-2.1
			c0.4-0.4,0.8-0.6,1-1c0.4-0.4,0.8-0.8,1-1c0.4-0.4,0.8-0.8,1-1c0.4-0.4,0.6-0.8,1-1c0.4-0.4,0.6-0.8,1-1c0.6-0.8,1.5-1.7,2.1-2.3
			l0,0c0.6-0.6,1-1.3,1.7-2.1c0.2-0.2,0.4-0.4,0.4-0.6c0.4-0.4,0.4-0.6,0.8-1c0.6-0.8,1.3-1.7,1.7-2.3c0,0,0-0.2,0-0.4l0,0
			C378.6,780.1,386.1,757.7,386.1,734.2z"/>
		<path fill="#FFFFFF" d="M210.9,821.7c19-28.1,19.7-50.9,1.7-50.9c-0.4,0-0.6,0-1,0s-1,0-1.5,0.2c-0.4,0-0.8,0.2-1,0.2
			c-0.6,0-1,0.2-1.7,0.4c-0.4,0-0.4,0.2-0.8,0.2s-0.6,0.2-1,0.4c-0.2,0-0.4,0.2-0.4,0.2l0,0c-0.2,0-0.4,0.2-0.8,0.2
			c-0.4,0-0.4,0.2-0.8,0.2c-0.4,0.2-0.6,0.2-1,0.4c-0.4,0.2-0.4,0.2-0.8,0.4c-0.4,0.2-0.6,0.2-1,0.4c-0.4,0.2-0.6,0.2-1,0.4
			c-0.4,0.2-0.6,0.2-0.8,0.4c-0.4,0.2-0.6,0.4-1,0.4c-0.4,0.2-0.4,0.4-0.8,0.4c-0.4,0.2-0.6,0.4-1,0.4c-0.4,0.2-0.4,0.4-0.8,0.4
			c-0.4,0.2-0.8,0.4-1,0.4c-0.4,0.2-0.4,0.4-0.8,0.4c-0.4,0.2-0.8,0.4-1,0.6c-0.2,0.2-0.4,0.4-0.6,0.4c-0.4,0.2-0.8,0.4-1.3,0.6
			c-0.2,0.2-0.4,0.4-0.6,0.4c-0.4,0.4-0.8,0.4-1.3,0.8c-0.2,0.2-0.4,0.4-0.6,0.4c-0.4,0.4-0.8,0.4-1.3,0.8c-0.2,0.2-0.4,0.4-0.6,0.4
			c-0.4,0.4-1,0.6-1.3,1c-0.2,0.2-0.4,0.4-0.6,0.4c-0.4,0.4-1,0.6-1.5,1c-0.2,0.2-0.4,0.4-0.6,0.4c-0.4,0.4-1,0.6-1.5,1
			c-0.2,0.2-0.4,0.4-0.6,0.4c-0.4,0.4-1,0.6-1.5,1c-0.2,0.2-0.4,0.4-0.6,0.4c-0.4,0.4-1,0.6-1.5,1c-0.2,0.2-0.4,0.4-0.6,0.4
			c-0.4,0.4-1,0.6-1.3,1c-0.2,0.2-0.4,0.4-0.6,0.6c-0.4,0.4-0.8,0.8-1.3,1c-0.4,0.2-0.4,0.4-0.8,0.6c-0.4,0.4-0.8,0.8-1.3,1
			c-0.4,0.2-0.4,0.4-0.8,0.6c-0.4,0.4-0.8,0.6-1,1c-0.4,0.4-0.4,0.4-0.8,0.8c-0.4,0.4-0.8,0.6-1,1c-0.4,0.4-0.6,0.6-1,0.8
			c-0.4,0.4-0.6,0.6-1,1c-0.4,0.4-0.6,0.6-1,1s-0.6,0.6-1,1c-0.4,0.4-0.6,0.6-1,1s-0.6,0.6-1,1s-0.6,0.8-1,1
			c-0.4,0.4-0.4,0.6-0.8,0.8c-0.4,0.4-0.8,0.8-1,1.3c-0.4,0.4-0.4,0.4-0.8,0.8c-0.4,0.4-0.8,1-1,1.3c-0.2,0.4-0.4,0.4-0.6,0.8
			c-0.4,0.4-0.8,1-1.3,1.5c-0.2,0.2-0.4,0.4-0.4,0.6c-0.4,0.4-0.8,1-1.3,1.7c-0.2,0.2-0.4,0.4-0.4,0.4c-0.4,0.4-0.8,1-1.3,1.7
			c-0.2,0.2-0.4,0.4-0.4,0.4c-0.4,0.6-1,1-1.3,1.7c-0.2,0.2-0.2,0.4-0.4,0.4c-0.4,0.6-1,1.3-1.5,1.9c0,0.2-0.2,0.2-0.2,0.4
			c-0.4,0.8-1,1.7-1.7,2.3c-19,28.1-11.3,35.8,6.5,35.8c0.6,0,1,0,1.7,0c0.2,0,0.4,0,0.4,0c0.4,0,0.8,0,1,0c0.2,0,0.4,0,0.6,0
			c0.4,0,0.8,0,1-0.2c0.2,0,0.4,0,0.6,0c0.4,0,0.8,0,1-0.2c0.2,0,0.4,0,0.6,0c0.4,0,0.8-0.2,1.3-0.2c0.2,0,0.4,0,0.4,0
			c0.4-0.2,1-0.2,1.7-0.4c0,0,0,0,0.2,0c1.3-0.2,2.5-0.4,3.8-0.8c0.2,0,0.2,0,0.4,0c0.4-0.2,1-0.4,1.7-0.4c0.2,0,0.4,0,0.4-0.2
			c0.4-0.2,1-0.4,1.5-0.4c0.2,0,0.4-0.2,0.4-0.2c0.4-0.2,1-0.4,1.7-0.4c0.2,0,0.2,0,0.4-0.2c0.6-0.2,1-0.4,1.7-0.6c0,0,0,0,0.2,0
			c1.9-0.8,3.8-1.7,5.9-2.7c0.2,0,0.2-0.2,0.4-0.2c0.4-0.4,1-0.6,1.7-1c0,0,0.2,0,0.2-0.2l0,0c7.7-4.6,15.9-11.3,23.4-21.4l0,0
			c1.3-1.7,2.3-3.3,3.8-5C210.7,822.3,210.9,821.9,210.9,821.7z"/>
		<path fill="#FFFFFF" d="M20.8,670.6c15.3,5.9,67.2,17.8,103.8-11.9c10.9-8.6,6.7-16.1,19.5-20.7c10.3-3.8,19.5-13.2,23.4-19.7
			c19.3,3.8,48.8,7.5,59,12.1c3.3,1.5,6.5,3.1,9.4,5c2.7-0.2,5.7-0.4,8.6-0.4c0.6,0,1.3,0,1.9,0c-7.7-6.5-15.7-10.3-21.8-13.2
			c-12.4-5.9-35.6-8.4-54.4-18.4c-7.1,4.6-14.2,8.6-20.5,8.6c0,1.7,5,3.3,12.4,5c-2.3,4.6-8.2,14-21.6,18c-4.8,1.5-35.8-12.8-68.9,0
			c-0.6,7.1-16.7,29.7-50.2,27.2c-18-1.3-8.4-13.2-8.4-13.2C4.5,652.1-1.6,662.2,20.8,670.6z"/>
		<path fill="#FFFFFF" d="M114.8,765.6c0-2.7-27.8-4-61.8-2.5s-53.2,4.8-53.2,7.5c0,2.7,33.3-1.7,67.2-3.1
			C100.8,766.2,114.8,768.3,114.8,765.6z"/>
		<path fill="#FFFFFF" d="M38.6,748.2c0,2.7,23.9,0.8,49.6,1.7c26,0.6,36.4,3.8,36.4,1c0-1.7-27-4.8-52.8-5.7
			C46,744.7,38.6,746.6,38.6,748.2z"/>
		<path fill="#FFFFFF" d="M138.1,783c0-1.7-18.6-2.5-36.4-1.7c-17.8,0.8-28.1,3.1-27.8,4.6c0,2.3,21.6-1,39.1-1.7
			C130.7,783.2,138.1,785.1,138.1,783z"/>
	</g>
</g>
</svg>
