<?xml version="1.0" encoding="utf-8"?>
<!-- Generator: Adobe Illustrator 18.0.0, SVG Export Plug-In . SVG Version: 6.00 Build 0)  -->
<!DOCTYPE svg PUBLIC "-//W3C//DTD SVG 1.1//EN" "http://www.w3.org/Graphics/SVG/1.1/DTD/svg11.dtd">
<svg version="1.1" id="Layer_1" xmlns="http://www.w3.org/2000/svg" xmlns:xlink="http://www.w3.org/1999/xlink" x="0px" y="0px"
	 viewBox="31.5 334.2 550.3 124.4" enable-background="new 31.5 334.2 550.3 124.4" xml:space="preserve">
<g>
	<g>
		<g>
			<path fill="#333333" d="M229.8,440.4h14.4v-74.5h-14.4v-7.4h39.6c16.8,0,35,7.3,35,27.5c0,20.3-18.4,27.5-35,27.5H253v26.8H270
				v7.3h-40.2V440.4z M253.1,406.3h16.6c17.6,0,25.9-8,25.9-20.2s-8.3-20.2-25.9-20.2h-16.6V406.3z"/>
		</g>
		<g>
			<path fill="#333333" d="M310.2,417c0-19.7,11.2-33,29-33c19.5,0,27.1,16.4,27.1,30.6c0,1.1,0,2.8-0.3,4.1h-47.2
				c0.6,14.6,8.9,23.7,23.3,23.7c7.9,0,15.2-2.6,21.2-6.3v7.3c-5.5,3.1-12.7,5.9-21.9,5.9C321.1,449.3,310.2,436.2,310.2,417z
				 M318.9,412.3H358c-0.6-10.7-5.7-21.5-18.8-21.5C327.2,390.8,320.2,399.7,318.9,412.3z"/>
		</g>
		<g>
			<path fill="#333333" d="M375.9,431.2c0-15.7,15.8-19,28.4-19h14.1v-5.9c0-11.2-4.3-15.2-15.8-15.2c-7.9,0-15.8,1.9-21.5,4.1v-6.9
				c6.3-2.5,14.8-4.3,22.9-4.3c15.7,0,23,6.6,23,21.6v35.1h11.4v6.9h-19.7v-8c-5,4.4-13.3,9.6-23.1,9.6
				C384.9,449.3,375.9,443.4,375.9,431.2z M418.4,433.1v-14.8h-13.9c-9.5,0-19.8,2.2-19.8,12.8c0,7.3,5.2,11.6,13,11.6
				C406.1,442.6,413.5,437.5,418.4,433.1z"/>
		</g>
		<g>
			<path fill="#333333" d="M442.9,416.8c0-20.3,12.4-32.8,32.1-32.8c8.1,0,16.3,2.2,21.5,4.3V406h-7.4v-12.9
				c-3.4-1-8.6-2.1-13.6-2.1c-16,0-23.8,10.6-23.8,25.3c0,15.8,8.9,25.9,23.8,25.9c7.6,0,14.9-2.5,21.2-6.3v7.2
				c-5.9,3.7-13.2,6.1-21.9,6.1C455,449.3,442.9,436.9,442.9,416.8z"/>
		</g>
		<g>
			<path fill="#333333" d="M506.5,440.8h11.7v-89.7h-11.7v-6.9h20.3v50.9c7.1-6.6,15.8-11.2,25-11.2c11.2,0,18.4,6.9,18.4,20.2v36.6
				h11.7v6.9h-32v-6.9h11.7v-35.6c0-8.3-3.1-14.1-12-14.1c-8.7,0-16.8,5.4-22.8,10.9v38.8h11.7v6.9h-32V440.8z"/>
		</g>
	</g>
	<g>
		<path fill="#FA8870" d="M156.9,451.8c-0.8,5.1,2.9,6.8,8.9,6.8c8.5,0,18.6-3.2,27.7-15v-0.1c0.7-0.9,1.4-1.9,2.1-2.9
			c-8.8,7-20,11.1-32.1,11.1L156.9,451.8L156.9,451.8z"/>
		<path fill="#FA8870" d="M216,396.6c0-28.1-23-50.9-51.3-50.9c-2.1,0-4.1,0.1-6,0.3c24.1,2.9,42.8,23.3,42.8,47.9
			c0,0.9,0,1.8-0.1,2.7c-1.4-25.1-22.1-45.1-47.7-45.5c-0.3,0-0.6,0-0.9,0c-1.4,0-2.7,0.1-4.1,0.2c-9,0.8-17.2,3.8-24.1,8.7
			c-0.6,0.4-1.1,0.8-1.7,1.3c-0.2,0.1-0.2,0.2-0.4,0.3c-1,0.8-1.9,1.6-2.9,2.4c-0.2,0.2-0.3,0.3-0.5,0.5c-0.4,0.4-0.8,0.8-1.1,1.1
			c-0.2,0.2-0.3,0.3-0.4,0.4c-0.2,0.2-0.4,0.4-0.6,0.6c-0.2,0.2-0.5,0.5-0.7,0.7c-0.3,0.3-0.5,0.6-0.8,1c-0.2,0.2-0.4,0.4-0.5,0.6
			c-0.2,0.3-0.5,0.5-0.7,0.8c-0.2,0.2-0.2,0.3-0.3,0.5c-0.1,0.1-0.2,0.2-0.3,0.4c-0.1,0.1-0.2,0.2-0.2,0.4c-0.5,0.6-0.9,1.2-1.3,1.8
			c-0.2,0.2-0.3,0.5-0.5,0.8c-0.2,0.3-0.4,0.6-0.6,0.9c-0.2,0.2-0.2,0.4-0.4,0.6l0,0c-0.2,0.2-0.2,0.4-0.4,0.6
			c-0.2,0.2-0.2,0.4-0.4,0.6c-0.1,0.2-0.2,0.3-0.2,0.5c-0.1,0.1-0.1,0.2-0.2,0.3c-0.1,0.2-0.2,0.3-0.2,0.5c-0.2,0.2-0.2,0.5-0.4,0.7
			c-0.1,0.2-0.2,0.4-0.3,0.5c-0.1,0.2-0.2,0.5-0.3,0.6c-0.2,0.3-0.2,0.6-0.4,0.9c-0.3,0.8-0.6,1.5-0.9,2.2c-0.2,0.3-0.2,0.7-0.4,1.1
			c-0.1,0.2-0.2,0.5-0.2,0.7c-0.1,0.2-0.2,0.4-0.2,0.5c-0.2,0.7-0.5,1.5-0.6,2.1c-0.1,0.3-0.2,0.6-0.2,0.9c-0.4,1.5-0.7,3.1-0.9,4.7
			c-0.1,0.3-0.3,2.1-0.4,2.4c0,0.1-0.1,2.9-0.1,3.3c0,0.1,0,0.1,0,0.2c0,0.4,0,0.8,0,1.1c0,8.8,2.4,17,6.5,24.1
			c4.3-3.8,8.6-7,12.8-9.3c2.7-1.5,5.3-2.5,7.7-3.1c0.4-0.1,0.8-0.2,1.1-0.2c0.4-0.1,0.7-0.2,1.1-0.2c0.2,0,0.5-0.1,0.7-0.1
			c0.3,0,0.5-0.1,0.8-0.1c0.2,0,0.4,0,0.5,0c1,0,1.8,0.1,2.6,0.3c1.1,0.9,2.4,1.8,3.7,2.7c2.1,3.4,1.6,9.3-1.5,16.4l0,0
			c-1.4,3.1-3.3,6.7-5.7,10.2c-0.8,1.1-1.5,2.1-2.2,3.1c6.3,3,13.4,4.7,20.8,4.7h11.9c0.4,0,0.8,0,1.2,0c0.2,0,0.2,0,0.4,0
			c0.3,0,0.7,0,1,0c0.1,0,0.2,0.1,0.2,0c0.4,0,0.8,0,1.1,0l0,0c0.4,0,0.7-0.2,1.1-0.2c0.2,0,0.3-0.2,0.5-0.2
			c0.4-0.1,0.8-0.1,1.2-0.2c0.4-0.1,0.8-0.1,1.1-0.2c0.5-0.1,0.9-0.2,1.4-0.2c0.4-0.1,0.8-0.2,1.1-0.2l0,0c0.4,0,0.8-0.2,1.2-0.2
			c0.3-0.1,0.5-0.1,0.8-0.2c0.2-0.1,0.5-0.1,0.7-0.2c0.4-0.1,0.7-0.2,1-0.3c0.4-0.1,0.8-0.2,1.1-0.3l0,0c0.4-0.1,0.7-0.2,1.1-0.3
			c0.2-0.1,0.2-0.1,0.4-0.2c0.3-0.1,0.6-0.2,0.9-0.3c0.4-0.2,0.8-0.3,1.1-0.5c0,0,0,0,0.1,0c0.3-0.2,0.6-0.2,0.9-0.4
			c0.2-0.1,0.3-0.2,0.5-0.2c0.3-0.2,0.6-0.3,1-0.5c0.3-0.2,0.6-0.3,0.9-0.5c0.5-0.2,0.8-0.5,1.3-0.7c0.3-0.2,0.5-0.3,0.8-0.5
			c0.1-0.1,0.2-0.1,0.3-0.2c0.2-0.2,0.5-0.2,0.7-0.4c0.3-0.2,0.7-0.4,1-0.6c0.2-0.1,0.4-0.2,0.5-0.3c0.3-0.2,0.7-0.4,1-0.6
			c0.3-0.2,0.6-0.4,0.8-0.5c0.2-0.2,0.5-0.3,0.8-0.5c0.2-0.2,0.4-0.2,0.5-0.4c0.2-0.2,0.4-0.3,0.6-0.5c0.2-0.2,0.4-0.3,0.5-0.4
			c0.4-0.3,0.8-0.6,1.2-0.9c0.2-0.2,0.4-0.3,0.5-0.5c0.2-0.2,0.4-0.3,0.5-0.5c0.2-0.2,0.4-0.3,0.5-0.5c0.2-0.2,0.4-0.4,0.6-0.5
			c0.4-0.3,0.7-0.6,1.1-1c0.2-0.2,0.4-0.3,0.5-0.5c0.2-0.2,0.4-0.4,0.5-0.5c0.2-0.2,0.4-0.4,0.5-0.5c0.2-0.2,0.3-0.4,0.5-0.5
			c0.2-0.2,0.3-0.4,0.5-0.5c0.3-0.4,0.7-0.8,1-1.1l0,0c0.3-0.3,0.5-0.6,0.8-1c0.1-0.1,0.2-0.2,0.2-0.3c0.2-0.2,0.2-0.3,0.4-0.5
			c0.3-0.4,0.6-0.8,0.8-1.1c0,0,0-0.1,0-0.2l0,0C212.4,418.5,216,407.8,216,396.6z"/>
		<path fill="#FA8870" d="M132.3,438.4c9.1-13.4,9.4-24.3,0.8-24.3c-0.2,0-0.3,0-0.5,0c-0.2,0-0.5,0-0.7,0.1c-0.2,0-0.4,0.1-0.5,0.1
			c-0.3,0-0.5,0.1-0.8,0.2c-0.2,0-0.2,0.1-0.4,0.1s-0.3,0.1-0.5,0.2c-0.1,0-0.2,0.1-0.2,0.1l0,0c-0.1,0-0.2,0.1-0.4,0.1
			s-0.2,0.1-0.4,0.1c-0.2,0.1-0.3,0.1-0.5,0.2c-0.2,0.1-0.2,0.1-0.4,0.2c-0.2,0.1-0.3,0.1-0.5,0.2c-0.2,0.1-0.3,0.1-0.5,0.2
			c-0.2,0.1-0.3,0.1-0.4,0.2c-0.2,0.1-0.3,0.2-0.5,0.2c-0.2,0.1-0.2,0.2-0.4,0.2c-0.2,0.1-0.3,0.2-0.5,0.2c-0.2,0.1-0.2,0.2-0.4,0.2
			c-0.2,0.1-0.4,0.2-0.5,0.2c-0.2,0.1-0.2,0.2-0.4,0.2c-0.2,0.1-0.4,0.2-0.5,0.3c-0.1,0.1-0.2,0.2-0.3,0.2c-0.2,0.1-0.4,0.2-0.6,0.3
			c-0.1,0.1-0.2,0.2-0.3,0.2c-0.2,0.2-0.4,0.2-0.6,0.4c-0.1,0.1-0.2,0.2-0.3,0.2c-0.2,0.2-0.4,0.2-0.6,0.4c-0.1,0.1-0.2,0.2-0.3,0.2
			c-0.2,0.2-0.5,0.3-0.6,0.5c-0.1,0.1-0.2,0.2-0.3,0.2c-0.2,0.2-0.5,0.3-0.7,0.5c-0.1,0.1-0.2,0.2-0.3,0.2c-0.2,0.2-0.5,0.3-0.7,0.5
			c-0.1,0.1-0.2,0.2-0.3,0.2c-0.2,0.2-0.5,0.3-0.7,0.5c-0.1,0.1-0.2,0.2-0.3,0.2c-0.2,0.2-0.5,0.3-0.7,0.5c-0.1,0.1-0.2,0.2-0.3,0.2
			c-0.2,0.2-0.5,0.3-0.6,0.5c-0.1,0.1-0.2,0.2-0.3,0.3c-0.2,0.2-0.4,0.4-0.6,0.5c-0.2,0.1-0.2,0.2-0.4,0.3c-0.2,0.2-0.4,0.4-0.6,0.5
			c-0.2,0.1-0.2,0.2-0.4,0.3c-0.2,0.2-0.4,0.3-0.5,0.5c-0.2,0.2-0.2,0.2-0.4,0.4s-0.4,0.3-0.5,0.5c-0.2,0.2-0.3,0.3-0.5,0.4
			c-0.2,0.2-0.3,0.3-0.5,0.5c-0.2,0.2-0.3,0.3-0.5,0.5c-0.2,0.2-0.3,0.3-0.5,0.5c-0.2,0.2-0.3,0.3-0.5,0.5c-0.2,0.2-0.3,0.3-0.5,0.5
			c-0.2,0.2-0.3,0.4-0.5,0.5c-0.2,0.2-0.2,0.3-0.4,0.4c-0.2,0.2-0.4,0.4-0.5,0.6c-0.2,0.2-0.2,0.2-0.4,0.4c-0.2,0.2-0.4,0.5-0.5,0.6
			c-0.1,0.2-0.2,0.2-0.3,0.4c-0.2,0.2-0.4,0.5-0.6,0.7c-0.1,0.1-0.2,0.2-0.2,0.3c-0.2,0.2-0.4,0.5-0.6,0.8c-0.1,0.1-0.2,0.2-0.2,0.2
			c-0.2,0.2-0.4,0.5-0.6,0.8c-0.1,0.1-0.2,0.2-0.2,0.2c-0.2,0.3-0.5,0.5-0.6,0.8c-0.1,0.1-0.1,0.2-0.2,0.2c-0.2,0.3-0.5,0.6-0.7,0.9
			c0,0.1-0.1,0.1-0.1,0.2c-0.2,0.4-0.5,0.8-0.8,1.1c-9.1,13.4-5.4,17.1,3.1,17.1c0.3,0,0.5,0,0.8,0c0.1,0,0.2,0,0.2,0
			c0.2,0,0.4,0,0.5,0c0.1,0,0.2,0,0.3,0c0.2,0,0.4,0,0.5-0.1c0.1,0,0.2,0,0.3,0c0.2,0,0.4,0,0.5-0.1c0.1,0,0.2,0,0.3,0
			c0.2,0,0.4-0.1,0.6-0.1c0.1,0,0.2,0,0.2,0c0.2-0.1,0.5-0.1,0.8-0.2c0,0,0,0,0.1,0c0.6-0.1,1.2-0.2,1.8-0.4c0.1,0,0.1,0,0.2,0
			c0.2-0.1,0.5-0.2,0.8-0.2c0.1,0,0.2,0,0.2-0.1c0.2-0.1,0.5-0.2,0.7-0.2c0.1,0,0.2-0.1,0.2-0.1c0.2-0.1,0.5-0.2,0.8-0.2
			c0.1,0,0.1,0,0.2-0.1c0.3-0.1,0.5-0.2,0.8-0.3c0,0,0,0,0.1,0c0.9-0.4,1.8-0.8,2.8-1.3c0.1,0,0.1-0.1,0.2-0.1
			c0.2-0.2,0.5-0.3,0.8-0.5c0,0,0.1,0,0.1-0.1l0,0c3.7-2.2,7.6-5.4,11.2-10.2l0,0c0.6-0.8,1.1-1.6,1.8-2.4
			C132.2,438.7,132.3,438.5,132.3,438.4z"/>
		<path fill="#FA8870" d="M41.5,366.2c7.3,2.8,32.1,8.5,49.6-5.7c5.2-4.1,3.2-7.7,9.3-9.9c4.9-1.8,9.3-6.3,11.2-9.4
			c9.2,1.8,23.3,3.6,28.2,5.8c1.6,0.7,3.1,1.5,4.5,2.4c1.3-0.1,2.7-0.2,4.1-0.2c0.3,0,0.6,0,0.9,0c-3.7-3.1-7.5-4.9-10.4-6.3
			c-5.9-2.8-17-4-26-8.8c-3.4,2.2-6.8,4.1-9.8,4.1c0,0.8,2.4,1.6,5.9,2.4c-1.1,2.2-3.9,6.7-10.3,8.6c-2.3,0.7-17.1-6.1-32.9,0
			c-0.3,3.4-8,14.2-24,13c-8.6-0.6-4-6.3-4-6.3C33.7,357.4,30.8,362.2,41.5,366.2z"/>
		<path fill="#FA8870" d="M86.4,411.6c0-1.3-13.3-1.9-29.5-1.2s-25.4,2.3-25.4,3.6s15.9-0.8,32.1-1.5
			C79.7,411.9,86.4,412.9,86.4,411.6z"/>
		<path fill="#FA8870" d="M50,403.3c0,1.3,11.4,0.4,23.7,0.8c12.4,0.3,17.4,1.8,17.4,0.5c0-0.8-12.9-2.3-25.2-2.7
			C53.5,401.6,50,402.5,50,403.3z"/>
		<path fill="#FA8870" d="M97.5,419.9c0-0.8-8.9-1.2-17.4-0.8c-8.5,0.4-13.4,1.5-13.3,2.2c0,1.1,10.3-0.5,18.7-0.8
			C94,420,97.5,420.9,97.5,419.9z"/>
	</g>
</g>
</svg>
